<svg width="138" height="90" viewBox="0 0 138 90" fill="none" xmlns="http://www.w3.org/2000/svg">
<g filter="url(#filter0_dd_2873_549)">
<path d="M23.6256 42.3994C34.8792 41.9632 44.3605 50.7225 44.8154 61.9753C45.2703 73.2282 36.5269 82.7242 25.2747 83.1977C13.9961 83.6724 4.47291 74.9039 4.01698 63.6245C3.56104 52.345 12.3454 42.8365 23.6256 42.3994Z" fill="#EAE4FE"/>
<path d="M59.8615 63.7172C65.0311 62.9531 69.8411 66.5252 70.604 71.695C71.3668 76.8648 67.7936 81.6739 62.6237 82.4356C57.4554 83.1971 52.6482 79.6253 51.8856 74.4572C51.1229 69.2891 54.6936 64.481 59.8615 63.7172ZM61.8448 79.1175C69.1498 77.7457 67.2307 65.9911 60.862 67.1424C59.2444 67.2769 57.9262 67.8792 57.0602 69.2727C54.5227 73.3551 56.2588 79.5568 61.8448 79.1175Z" fill="#FEFEFE"/>
<path d="M122.441 49.759C122.492 49.7514 122.638 49.7609 122.697 49.7631C122.974 50.0849 122.779 50.9671 122.816 51.4011C122.976 53.2505 122.264 57.5502 123.285 58.9684C123.661 59.4897 124.229 59.8397 124.863 59.9408C125.17 59.9894 125.544 59.9848 125.841 59.888C128.256 59.0995 127.796 56.5464 127.85 54.5853C127.895 52.9831 127.789 51.3952 127.996 49.8496C128.861 49.7258 130.617 49.8396 131.758 49.7148C131.798 50.4786 131.745 51.6596 131.734 52.4466L131.666 57.6113C131.6 63.0016 132.526 67.3307 125.595 67.9726C124.34 67.9859 119.526 66.9572 119.025 65.7872C118.999 65.1986 119.878 63.8351 120.223 63.3117C121.572 63.992 123.172 64.7095 124.69 64.7825C127.721 64.9283 128.384 63.875 128.521 61.0636C126.534 63.9518 122.09 63.7337 120.075 61.096C119.565 60.4239 119.208 59.6487 119.03 58.8246C118.707 57.3469 118.826 51.403 119.034 49.8039C120.174 49.7841 121.301 49.8383 122.441 49.759Z" fill="#FEFEFE"/>
<path d="M90.3759 49.4928C90.7475 49.4385 91.2167 49.419 91.5932 49.4579C96.0254 49.9163 97.8112 52.735 97.447 57.0004C96.5659 57.0891 95.1304 57.0409 94.2084 57.0371C92.3298 57.0121 90.4505 57.0264 88.572 57.08C88.8804 58.0337 89.1807 59.0718 90.0847 59.6113C91.9304 60.7117 93.3651 59.6923 94.3306 58.1789C95.0795 58.4896 96.0688 58.6966 96.8719 58.9049C97.1287 58.9687 97.5175 59.1297 97.7775 59.2284C96.5397 63.4074 90.8279 64.1146 87.5499 61.9945C84.4212 59.9706 83.7797 55.179 85.7181 52.1383C86.8395 50.3804 88.453 49.8904 90.3759 49.4928ZM88.7024 55.1439L91.9484 55.1422C92.5989 55.1386 93.4069 55.155 94.0427 55.1051C93.3101 53.4435 93.0304 52.4082 90.9099 52.6029C89.5629 53.0035 89.1208 53.8867 88.7024 55.1439Z" fill="#FEFEFE"/>
<path d="M93.9492 68.7002C97.5241 68.4568 100.602 70.6202 100.752 74.3491C100.78 75.0364 100.737 75.5257 100.661 76.2178C97.8703 76.3486 94.7449 76.1496 91.8631 76.2643C91.9845 76.5628 92.1027 76.9026 92.2011 77.2063C92.7942 79.0453 94.6612 79.986 96.3445 78.827C96.8843 78.4554 97.1902 77.9353 97.6915 77.5673C98.52 77.436 99.5642 78.0623 100.486 78.2302C101.378 78.629 100.883 79.3634 100.413 79.9342C99.3231 81.2599 98.0204 82.0134 96.3379 82.273C92.1872 82.9136 88.4301 80.6362 87.9691 76.2974C87.5409 72.1627 89.6302 69.1413 93.9492 68.7002ZM91.9329 74.4462C92.7761 74.2975 93.5161 74.322 94.3692 74.3371C95.3298 74.3404 96.3347 74.3287 97.2911 74.3487C96.8367 73.0488 96.4487 71.8941 94.8622 71.7433C92.8926 71.9416 92.6449 72.8326 91.9329 74.4462Z" fill="#FEFEFE"/>
<path d="M50.9584 44.9685C51.9431 44.8898 54.6895 44.9758 55.8546 44.9838C58.4582 45.0015 61.3682 44.8848 63.9355 44.9943C64.0088 45.957 63.9195 47.0473 63.973 48.0738C61.9319 48.21 59.8361 48.0635 57.788 48.1069C56.8141 48.1274 55.8131 48.1465 54.8422 48.0818C54.8776 48.9988 54.9248 51.9419 54.7265 52.7676C56.9469 52.6218 59.6499 52.787 62.0632 52.6703L62.0651 53.9718L61.9656 55.9061C60.9446 55.9735 59.5547 55.9198 58.5006 55.9251C57.3863 55.9307 55.8743 55.9889 54.8142 55.8728C54.9211 57.6828 54.7685 60.956 54.7052 62.8025C53.6122 62.9083 51.9402 62.8512 50.7717 62.8694C50.6587 59.6039 50.7979 55.6099 50.8117 52.2567L50.8331 47.9861C50.8386 47.1171 50.8184 45.7903 50.9584 44.9685Z" fill="#FEFEFE"/>
<path d="M106.238 43.5977C109.196 43.8568 110.689 44.8095 111.671 47.6486C110.928 47.6645 108.912 48.0031 108.15 48.174C107.878 47.6292 107.735 47.3654 107.319 46.9175C104.846 46.0933 104.914 48.0744 104.883 49.8164C106.724 49.7175 108.409 49.8822 110.32 49.6999C110.287 50.7075 110.31 51.8396 110.319 52.8523C108.671 52.705 106.542 52.8432 104.814 52.7829C104.941 53.6927 104.877 55.3885 104.865 56.3429C104.841 57.3338 104.877 62.0701 104.668 62.6809C104.088 62.9676 101.791 62.8763 100.961 62.8848C100.821 61.8707 100.903 60.8288 100.878 59.8196C100.823 57.5998 101.006 55.0484 100.876 52.8593C100.688 52.7832 99.123 52.8167 98.8318 52.8167C98.7998 51.9386 98.8359 50.7113 98.8671 49.8229C99.4995 49.7825 100.319 49.7954 100.966 49.7874C100.919 48.208 100.988 46.6389 101.997 45.3332C103.07 43.9435 104.637 43.7954 106.238 43.5977Z" fill="#FEFEFE"/>
<path d="M79.8718 68.6989C81.1104 68.5389 82.6551 69.138 83.6485 69.8738C87.1849 72.4911 85.3383 78.1655 85.8674 82.1191C84.5525 82.1042 83.2383 82.0986 81.9234 82.1023C81.7601 80.0266 82.2901 74.4117 81.3729 72.9471C81.0899 72.4944 80.6634 72.1458 80.1326 72.0345C79.3668 71.8735 78.5397 71.9781 77.8788 72.3953C76.4288 73.7677 76.9813 76.9576 76.8567 78.8241C76.7974 79.7123 76.8164 81.2228 76.8836 82.1185C75.655 82.0736 74.2348 82.1058 72.9917 82.1042C72.9335 80.6809 72.8706 69.8329 73.1414 69.1841C73.1756 69.165 73.2667 69.1161 73.2985 69.1129C75.818 68.8635 75.615 69.0409 76.1118 70.9289C77.1419 69.3479 78.0723 68.9136 79.8718 68.6989Z" fill="#FEFEFE"/>
<path d="M78.6741 49.4923C81.6806 49.1191 83.496 51.4685 83.8315 54.2456C82.7232 54.5903 81.5272 54.6432 80.3328 54.9655C80.1195 53.9265 79.5965 52.8417 78.3432 52.8428C76.4196 52.8446 76.6737 55.9029 76.662 57.2168L76.6173 61.0186C76.6279 61.6174 76.6002 62.1942 76.5755 62.7922C75.7571 62.9344 73.6707 62.876 72.7458 62.875C72.6148 61.846 72.593 50.1613 72.8514 49.8186C73.3023 49.7273 74.784 49.7244 75.2259 49.8639C75.5103 49.9537 75.6922 51.077 75.7863 51.4665L75.8287 51.3961C76.5723 50.1724 77.3481 49.8123 78.6741 49.4923Z" fill="#FEFEFE"/>
<path d="M112.734 43.9316C113.785 44.0018 115.063 43.9601 116.136 43.9479C116.234 44.8417 116.038 62.4773 116.008 62.5672C115.947 62.756 115.808 62.7846 115.644 62.8635C114.531 62.904 113.291 62.8159 112.126 62.8398C112.245 58.6196 112.077 54.2193 112.206 49.9884C112.255 48.4009 112.095 45.5459 112.304 44.1046C112.493 43.9255 112.439 43.978 112.734 43.9316Z" fill="#FEFEFE"/>
<path d="M65.978 49.701C66.8953 49.8794 68.8765 49.8213 69.7815 49.6855C69.7879 52.7198 69.7735 55.7541 69.7384 58.7881C69.7334 59.6356 69.8052 62.1181 69.663 62.8023C68.8486 62.9255 66.7744 62.862 65.8625 62.8564C65.6844 61.3505 65.8435 57.9424 65.8487 56.3264C65.8532 54.902 65.7569 50.9606 65.978 49.701Z" fill="#FEFEFE"/>
<path d="M27.0589 31.3194C28.6878 30.9973 30.2692 32.0571 30.5905 33.6861C30.9118 35.3152 29.8511 36.8961 28.2219 37.2165C26.5939 37.5368 25.0144 36.477 24.6933 34.8492C24.3723 33.2213 25.4312 31.6413 27.0589 31.3194Z" fill="#D6CBF9"/>
<path d="M42.4919 13.6892C43.9202 13.4366 45.2848 14.3835 45.5478 15.81C45.8109 17.2363 44.8738 18.6078 43.4494 18.8812C42.0102 19.1574 40.6215 18.2086 40.3558 16.7675C40.0901 15.3263 41.0489 13.9446 42.4919 13.6892Z" fill="#D6CBF9"/>
<path d="M34.3513 22.1038C35.782 21.8138 37.1756 22.743 37.458 24.1752C37.7405 25.6074 36.804 26.996 35.3703 27.271C33.9473 27.5438 32.5711 26.6158 32.2907 25.1942C32.0104 23.7726 32.9312 22.3915 34.3513 22.1038Z" fill="#D6CBF9"/>
<path d="M67.2816 43.2986C68.5855 42.97 69.9074 43.7673 70.2252 45.074C70.543 46.3806 69.7349 47.6958 68.4256 48.0029C67.1315 48.3062 65.8349 47.5095 65.5208 46.218C65.2067 44.9265 65.9927 43.6233 67.2816 43.2986Z" fill="#FEFEFE"/>
<path d="M51.8103 7.09755C52.6161 6.90145 53.4651 7.15404 54.0327 7.75875C54.6003 8.36345 54.7986 9.22676 54.5519 10.0185C54.3052 10.8103 53.6516 11.4082 52.8409 11.5835C51.6098 11.8497 50.3935 11.0768 50.1114 9.84923C49.8293 8.62165 50.5865 7.39539 51.8103 7.09755Z" fill="#D6CBF9"/>
<path d="M63.0079 4.0382C63.8218 3.88766 64.6533 4.18865 65.1823 4.82518C65.7112 5.46171 65.8548 6.33438 65.5578 7.10686C65.2608 7.87932 64.5695 8.43097 63.7504 8.54919C62.5181 8.72702 61.3701 7.88615 61.1679 6.65764C60.9657 5.42912 61.7837 4.26467 63.0079 4.0382Z" fill="#8F8EC2"/>
<path d="M74.2467 4.30561C75.3332 4.07584 76.4001 4.77096 76.6289 5.85768C76.8577 6.94441 76.1616 8.01066 75.0747 8.23844C73.9891 8.46593 72.9245 7.77093 72.6961 6.68561C72.4676 5.60029 73.1616 4.53508 74.2467 4.30561Z" fill="#696DA6"/>
<path d="M82.8306 8.96995C83.8076 8.92197 84.6402 9.67124 84.6952 10.6479C84.7502 11.6245 84.007 12.4626 83.0308 12.5248C82.5476 12.5555 82.0735 12.3884 81.7166 12.0619C81.359 11.7353 81.1506 11.2775 81.1383 10.7938C81.1129 9.82713 81.8643 9.01739 82.8306 8.96995Z" fill="#4B538F"/>
<path d="M88.9593 14.5674C89.4728 14.3711 90.052 14.4661 90.4752 14.8162C90.8993 15.1662 91.102 15.7171 91.006 16.2582C90.9092 16.7992 90.5294 17.2467 90.0118 17.4295C89.2251 17.707 88.3613 17.3006 88.0734 16.5176C87.7854 15.7345 88.18 14.8655 88.9593 14.5674Z" fill="#4B538F"/>
</g>
<defs>
<filter id="filter0_dd_2873_549" x="0" y="0" width="137.773" height="89.2158" filterUnits="userSpaceOnUse" color-interpolation-filters="sRGB">
<feFlood flood-opacity="0" result="BackgroundImageFix"/>
<feColorMatrix in="SourceAlpha" type="matrix" values="0 0 0 0 0 0 0 0 0 0 0 0 0 0 0 0 0 0 127 0" result="hardAlpha"/>
<feOffset dx="1" dy="1"/>
<feGaussianBlur stdDeviation="2.5"/>
<feComposite in2="hardAlpha" operator="out"/>
<feColorMatrix type="matrix" values="0 0 0 0 0 0 0 0 0 0 0 0 0 0 0 0 0 0 0.45 0"/>
<feBlend mode="normal" in2="BackgroundImageFix" result="effect1_dropShadow_2873_549"/>
<feColorMatrix in="SourceAlpha" type="matrix" values="0 0 0 0 0 0 0 0 0 0 0 0 0 0 0 0 0 0 127 0" result="hardAlpha"/>
<feOffset dx="1" dy="1"/>
<feGaussianBlur stdDeviation="2.5"/>
<feComposite in2="hardAlpha" operator="out"/>
<feColorMatrix type="matrix" values="0 0 0 0 0 0 0 0 0 0 0 0 0 0 0 0 0 0 0.45 0"/>
<feBlend mode="normal" in2="effect1_dropShadow_2873_549" result="effect2_dropShadow_2873_549"/>
<feBlend mode="normal" in="SourceGraphic" in2="effect2_dropShadow_2873_549" result="shape"/>
</filter>
</defs>
</svg>
